<svg width="48" height="48" viewBox="0 0 48 48" fill="none" xmlns="http://www.w3.org/2000/svg">
<rect width="48" height="48" rx="10" fill="#EDFFF9"/>
<path d="M11.4333 28.3083C11.1941 28.3083 11 28.1229 11 27.8945V13.2414C11 12.557 11.5833 12 12.3 12H35.7C36.4167 12 37 12.557 37 13.2414V17.3063C37 17.5347 36.8059 17.7201 36.5667 17.7201C36.3275 17.7201 36.1333 17.5347 36.1333 17.3063V13.2414C36.1333 13.0138 35.9383 12.8276 35.7 12.8276H12.3C12.0617 12.8276 11.8667 13.0138 11.8667 13.2414V27.8945C11.8667 28.1229 11.6725 28.3083 11.4333 28.3083Z" fill="#4AC8AE" stroke="#4AC8AE" stroke-width="0.6"/>
<path d="M24 36H19.2334C18.9942 36 18.8 35.8146 18.8 35.5862C18.8 35.3578 18.9942 35.1724 19.2334 35.1724H20.1C20.8168 35.1724 21.4 34.6155 21.4 33.9311V31.8621C21.4 31.6337 21.5942 31.4483 21.8334 31.4483C22.0726 31.4483 22.2667 31.6337 22.2667 31.8621V33.9311C22.2667 34.397 22.1046 34.8265 21.8325 35.1724H24C24.2392 35.1724 24.4334 35.3578 24.4334 35.5862C24.4334 35.8146 24.2392 36 24 36Z" fill="#4AC8AE" stroke="#4AC8AE" stroke-width="0.6"/>
<path d="M25.0111 31.8621H12.3C11.5833 31.8621 11 31.3051 11 30.6207V28.1379C11 27.9095 11.1941 27.7241 11.4333 27.7241H25.0111C25.2503 27.7241 25.4444 27.9095 25.4444 28.1379C25.4444 28.3663 25.2503 28.5517 25.0111 28.5517H11.8667V30.6207C11.8667 30.8483 12.0617 31.0345 12.3 31.0345H25.0111C25.2503 31.0345 25.4444 31.2198 25.4444 31.4483C25.4444 31.6767 25.2503 31.8621 25.0111 31.8621Z" fill="#4AC8AE" stroke="#4AC8AE" stroke-width="0.6"/>
<path d="M28.7666 17.7931H33.0999C33.3391 17.7931 33.5333 17.6077 33.5333 17.3793C33.5333 17.1509 33.3391 16.9655 33.0999 16.9655H28.7666C28.5274 16.9655 28.3333 17.1509 28.3333 17.3793C28.3333 17.6077 28.5274 17.7931 28.7666 17.7931Z" fill="#4AC8AE" stroke="#4AC8AE" stroke-width="0.6"/>
<path d="M30.5 34.3448H31.3667C31.6059 34.3448 31.8 34.1594 31.8 33.931C31.8 33.7026 31.6059 33.5172 31.3667 33.5172H30.5C30.2608 33.5172 30.0667 33.7026 30.0667 33.931C30.0667 34.1594 30.2608 34.3448 30.5 34.3448Z" fill="#4AC8AE" stroke="#4AC8AE" stroke-width="0.6"/>
<path fill-rule="evenodd" clip-rule="evenodd" d="M27.0334 36H34.8334C36.0285 36 37 35.0723 37 33.9311V17.3793C37 16.2381 36.0285 15.3104 34.8334 15.3104H27.0334C25.8382 15.3104 24.8667 16.2381 24.8667 17.3793V33.9311C24.8667 35.0723 25.8382 36 27.0334 36ZM25.7334 17.3793C25.7334 16.6949 26.3166 16.138 27.0334 16.138H34.8334C35.5501 16.138 36.1334 16.6949 36.1334 17.3793V33.9311C36.1334 34.6155 35.5501 35.1724 34.8334 35.1724H27.0334C26.3166 35.1724 25.7334 34.6155 25.7334 33.9311V17.3793Z" fill="#4AC8AE"/>
<path d="M34.8334 36V35.7H27.0334V36V36.3H34.8334V36ZM37 33.9311H36.7C36.7 34.8937 35.876 35.7 34.8334 35.7V36V36.3C36.181 36.3 37.3 35.2509 37.3 33.9311H37ZM37 17.3793H36.7V33.9311H37H37.3V17.3793H37ZM34.8334 15.3104V15.6104C35.876 15.6104 36.7 16.4167 36.7 17.3793H37H37.3C37.3 16.0595 36.181 15.0104 34.8334 15.0104V15.3104ZM27.0334 15.3104V15.6104H34.8334V15.3104V15.0104H27.0334V15.3104ZM24.8667 17.3793H25.1667C25.1667 16.4167 25.9907 15.6104 27.0334 15.6104V15.3104V15.0104C25.6857 15.0104 24.5667 16.0595 24.5667 17.3793H24.8667ZM24.8667 33.9311H25.1667V17.3793H24.8667H24.5667V33.9311H24.8667ZM27.0334 36V35.7C25.9907 35.7 25.1667 34.8937 25.1667 33.9311H24.8667H24.5667C24.5667 35.2509 25.6857 36.3 27.0334 36.3V36ZM27.0334 16.138V15.8379C26.1641 15.8379 25.4334 16.5163 25.4334 17.3793H25.7334H26.0334C26.0334 16.8735 26.4691 16.438 27.0334 16.438V16.138ZM34.8334 16.138V15.8379H27.0334V16.138V16.438H34.8334V16.138ZM36.1334 17.3793H36.4334C36.4334 16.5163 35.7026 15.8379 34.8334 15.8379V16.138V16.438C35.3976 16.438 35.8334 16.8735 35.8334 17.3793H36.1334ZM36.1334 33.9311H36.4334V17.3793H36.1334H35.8334V33.9311H36.1334ZM34.8334 35.1724V35.4724C35.7026 35.4724 36.4334 34.794 36.4334 33.9311H36.1334H35.8334C35.8334 34.4369 35.3976 34.8724 34.8334 34.8724V35.1724ZM27.0334 35.1724V35.4724H34.8334V35.1724V34.8724H27.0334V35.1724ZM25.7334 33.9311H25.4334C25.4334 34.794 26.1641 35.4724 27.0334 35.4724V35.1724V34.8724C26.4691 34.8724 26.0334 34.4369 26.0334 33.9311H25.7334ZM25.7334 17.3793H25.4334V33.9311H25.7334H26.0334V17.3793H25.7334Z" fill="#4AC8AE"/>
</svg>
